<?xml version="1.0" encoding="UTF-8" standalone="no"?>
<!DOCTYPE svg PUBLIC "-//W3C//DTD SVG 1.1//EN" "http://www.w3.org/Graphics/SVG/1.1/DTD/svg11.dtd">
<!-- Created with matplotlib (http://matplotlib.org/) -->
<svg height="288pt" version="1.1" viewBox="0 0 936 288" width="936pt" xmlns="http://www.w3.org/2000/svg" xmlns:xlink="http://www.w3.org/1999/xlink">
 <defs>
  <style type="text/css">
*{stroke-linecap:butt;stroke-linejoin:round;stroke-miterlimit:100000;}
  </style>
 </defs>
 <g id="figure_1">
  <g id="patch_1">
   <path d="M 0 288  L 936 288  L 936 0  L 0 0  z " style="fill:#ffffff;"/>
  </g>
  <g id="axes_1">
   <g id="patch_2">
    <path d="M 117 252  L 842.4 252  L 842.4 28.8  L 117 28.8  z " style="fill:#ffffff;"/>
   </g>
   <g id="line2d_1">
    <path clip-path="url(#pe06696868d)" d="M 124.111765 233.4  L 138.335294 155.28  L 166.782353 125.52  L 209.452941 75.3  L 294.794118 62.28  L 550.817647 52.98  L 835.288235 51.12  " style="fill:none;stroke:#0000ff;stroke-dasharray:6.000000,6.000000;stroke-dashoffset:0.0;stroke-width:2.0;"/>
    <defs>
     <path d="M 0 3  C 0.795609 3 1.55874 2.683901 2.12132 2.12132  C 2.683901 1.55874 3 0.795609 3 0  C 3 -0.795609 2.683901 -1.55874 2.12132 -2.12132  C 1.55874 -2.683901 0.795609 -3 0 -3  C -0.795609 -3 -1.55874 -2.683901 -2.12132 -2.12132  C -2.683901 -1.55874 -3 -0.795609 -3 0  C -3 0.795609 -2.683901 1.55874 -2.12132 2.12132  C -1.55874 2.683901 -0.795609 3 0 3  z " id="m0a6943bf74" style="stroke:#000000;stroke-width:0.5;"/>
    </defs>
    <g clip-path="url(#pe06696868d)">
     <use style="fill:#0000ff;stroke:#000000;stroke-width:0.5;" x="124.111764706" xlink:href="#m0a6943bf74" y="233.4"/>
     <use style="fill:#0000ff;stroke:#000000;stroke-width:0.5;" x="138.335294118" xlink:href="#m0a6943bf74" y="155.28"/>
     <use style="fill:#0000ff;stroke:#000000;stroke-width:0.5;" x="166.782352941" xlink:href="#m0a6943bf74" y="125.52"/>
     <use style="fill:#0000ff;stroke:#000000;stroke-width:0.5;" x="209.452941176" xlink:href="#m0a6943bf74" y="75.3"/>
     <use style="fill:#0000ff;stroke:#000000;stroke-width:0.5;" x="294.794117647" xlink:href="#m0a6943bf74" y="62.28"/>
     <use style="fill:#0000ff;stroke:#000000;stroke-width:0.5;" x="550.817647059" xlink:href="#m0a6943bf74" y="52.98"/>
     <use style="fill:#0000ff;stroke:#000000;stroke-width:0.5;" x="835.288235294" xlink:href="#m0a6943bf74" y="51.12"/>
    </g>
   </g>
   <g id="line2d_2">
    <path clip-path="url(#pe06696868d)" d="M 124.111765 233.4  L 138.335294 158.7024  L 166.782353 104.0556  L 209.452941 76.6392  L 294.794118 59.0808  L 550.817647 50.7852  L 835.288235 48.7392  " style="fill:none;stroke:#008000;stroke-dasharray:6.000000,6.000000;stroke-dashoffset:0.0;stroke-width:2.0;"/>
    <defs>
     <path d="M 0 3  C 0.795609 3 1.55874 2.683901 2.12132 2.12132  C 2.683901 1.55874 3 0.795609 3 0  C 3 -0.795609 2.683901 -1.55874 2.12132 -2.12132  C 1.55874 -2.683901 0.795609 -3 0 -3  C -0.795609 -3 -1.55874 -2.683901 -2.12132 -2.12132  C -2.683901 -1.55874 -3 -0.795609 -3 0  C -3 0.795609 -2.683901 1.55874 -2.12132 2.12132  C -1.55874 2.683901 -0.795609 3 0 3  z " id="me6469829b4" style="stroke:#000000;stroke-width:0.5;"/>
    </defs>
    <g clip-path="url(#pe06696868d)">
     <use style="fill:#008000;stroke:#000000;stroke-width:0.5;" x="124.111764706" xlink:href="#me6469829b4" y="233.4"/>
     <use style="fill:#008000;stroke:#000000;stroke-width:0.5;" x="138.335294118" xlink:href="#me6469829b4" y="158.7024"/>
     <use style="fill:#008000;stroke:#000000;stroke-width:0.5;" x="166.782352941" xlink:href="#me6469829b4" y="104.0556"/>
     <use style="fill:#008000;stroke:#000000;stroke-width:0.5;" x="209.452941176" xlink:href="#me6469829b4" y="76.6392"/>
     <use style="fill:#008000;stroke:#000000;stroke-width:0.5;" x="294.794117647" xlink:href="#me6469829b4" y="59.0808"/>
     <use style="fill:#008000;stroke:#000000;stroke-width:0.5;" x="550.817647059" xlink:href="#me6469829b4" y="50.7852"/>
     <use style="fill:#008000;stroke:#000000;stroke-width:0.5;" x="835.288235294" xlink:href="#me6469829b4" y="48.7392"/>
    </g>
   </g>
   <g id="patch_3">
    <path d="M 117 28.8  L 842.4 28.8  " style="fill:none;stroke:#000000;stroke-linecap:square;stroke-linejoin:miter;"/>
   </g>
   <g id="patch_4">
    <path d="M 842.4 252  L 842.4 28.8  " style="fill:none;stroke:#000000;stroke-linecap:square;stroke-linejoin:miter;"/>
   </g>
   <g id="patch_5">
    <path d="M 117 252  L 842.4 252  " style="fill:none;stroke:#000000;stroke-linecap:square;stroke-linejoin:miter;"/>
   </g>
   <g id="patch_6">
    <path d="M 117 252  L 117 28.8  " style="fill:none;stroke:#000000;stroke-linecap:square;stroke-linejoin:miter;"/>
   </g>
   <g id="matplotlib.axis_1">
    <g id="xtick_1">
     <g id="line2d_3">
      <path clip-path="url(#pe06696868d)" d="M 124.111765 252  L 124.111765 28.8  " style="fill:none;stroke:#000000;stroke-dasharray:1.000000,3.000000;stroke-dashoffset:0.0;stroke-width:0.5;"/>
     </g>
     <g id="line2d_4">
      <defs>
       <path d="M 0 0  L 0 -4  " id="m541840abc0" style="stroke:#000000;stroke-width:0.5;"/>
      </defs>
      <g>
       <use style="stroke:#000000;stroke-width:0.5;" x="124.111764706" xlink:href="#m541840abc0" y="252.0"/>
      </g>
     </g>
     <g id="line2d_5">
      <defs>
       <path d="M 0 0  L 0 4  " id="md430535a3f" style="stroke:#000000;stroke-width:0.5;"/>
      </defs>
      <g>
       <use style="stroke:#000000;stroke-width:0.5;" x="124.111764706" xlink:href="#md430535a3f" y="28.8"/>
      </g>
     </g>
     <g id="text_1">
      <!-- 0 -->
      <defs>
       <path d="M 31.78125 66.40625  Q 24.171875 66.40625 20.328125 58.90625  Q 16.5 51.421875 16.5 36.375  Q 16.5 21.390625 20.328125 13.890625  Q 24.171875 6.390625 31.78125 6.390625  Q 39.453125 6.390625 43.28125 13.890625  Q 47.125 21.390625 47.125 36.375  Q 47.125 51.421875 43.28125 58.90625  Q 39.453125 66.40625 31.78125 66.40625  M 31.78125 74.21875  Q 44.046875 74.21875 50.515625 64.515625  Q 56.984375 54.828125 56.984375 36.375  Q 56.984375 17.96875 50.515625 8.265625  Q 44.046875 -1.421875 31.78125 -1.421875  Q 19.53125 -1.421875 13.0625 8.265625  Q 6.59375 17.96875 6.59375 36.375  Q 6.59375 54.828125 13.0625 64.515625  Q 19.53125 74.21875 31.78125 74.21875  " id="DejaVuSans-30"/>
      </defs>
      <g transform="translate(120.930514706 263.5984375)scale(0.1 -0.1)">
       <use xlink:href="#DejaVuSans-30"/>
      </g>
     </g>
    </g>
    <g id="xtick_2">
     <g id="line2d_6">
      <path clip-path="url(#pe06696868d)" d="M 266.347059 252  L 266.347059 28.8  " style="fill:none;stroke:#000000;stroke-dasharray:1.000000,3.000000;stroke-dashoffset:0.0;stroke-width:0.5;"/>
     </g>
     <g id="line2d_7">
      <g>
       <use style="stroke:#000000;stroke-width:0.5;" x="266.347058824" xlink:href="#m541840abc0" y="252.0"/>
      </g>
     </g>
     <g id="line2d_8">
      <g>
       <use style="stroke:#000000;stroke-width:0.5;" x="266.347058824" xlink:href="#md430535a3f" y="28.8"/>
      </g>
     </g>
     <g id="text_2">
      <!-- 200 -->
      <defs>
       <path d="M 19.1875 8.296875  L 53.609375 8.296875  L 53.609375 0  L 7.328125 0  L 7.328125 8.296875  Q 12.9375 14.109375 22.625 23.890625  Q 32.328125 33.6875 34.8125 36.53125  Q 39.546875 41.84375 41.421875 45.53125  Q 43.3125 49.21875 43.3125 52.78125  Q 43.3125 58.59375 39.234375 62.25  Q 35.15625 65.921875 28.609375 65.921875  Q 23.96875 65.921875 18.8125 64.3125  Q 13.671875 62.703125 7.8125 59.421875  L 7.8125 69.390625  Q 13.765625 71.78125 18.9375 73  Q 24.125 74.21875 28.421875 74.21875  Q 39.75 74.21875 46.484375 68.546875  Q 53.21875 62.890625 53.21875 53.421875  Q 53.21875 48.921875 51.53125 44.890625  Q 49.859375 40.875 45.40625 35.40625  Q 44.1875 33.984375 37.640625 27.21875  Q 31.109375 20.453125 19.1875 8.296875  " id="DejaVuSans-32"/>
      </defs>
      <g transform="translate(256.803308824 263.5984375)scale(0.1 -0.1)">
       <use xlink:href="#DejaVuSans-32"/>
       <use x="63.623046875" xlink:href="#DejaVuSans-30"/>
       <use x="127.24609375" xlink:href="#DejaVuSans-30"/>
      </g>
     </g>
    </g>
    <g id="xtick_3">
     <g id="line2d_9">
      <path clip-path="url(#pe06696868d)" d="M 408.582353 252  L 408.582353 28.8  " style="fill:none;stroke:#000000;stroke-dasharray:1.000000,3.000000;stroke-dashoffset:0.0;stroke-width:0.5;"/>
     </g>
     <g id="line2d_10">
      <g>
       <use style="stroke:#000000;stroke-width:0.5;" x="408.582352941" xlink:href="#m541840abc0" y="252.0"/>
      </g>
     </g>
     <g id="line2d_11">
      <g>
       <use style="stroke:#000000;stroke-width:0.5;" x="408.582352941" xlink:href="#md430535a3f" y="28.8"/>
      </g>
     </g>
     <g id="text_3">
      <!-- 400 -->
      <defs>
       <path d="M 37.796875 64.3125  L 12.890625 25.390625  L 37.796875 25.390625  z M 35.203125 72.90625  L 47.609375 72.90625  L 47.609375 25.390625  L 58.015625 25.390625  L 58.015625 17.1875  L 47.609375 17.1875  L 47.609375 0  L 37.796875 0  L 37.796875 17.1875  L 4.890625 17.1875  L 4.890625 26.703125  z " id="DejaVuSans-34"/>
      </defs>
      <g transform="translate(399.038602941 263.5984375)scale(0.1 -0.1)">
       <use xlink:href="#DejaVuSans-34"/>
       <use x="63.623046875" xlink:href="#DejaVuSans-30"/>
       <use x="127.24609375" xlink:href="#DejaVuSans-30"/>
      </g>
     </g>
    </g>
    <g id="xtick_4">
     <g id="line2d_12">
      <path clip-path="url(#pe06696868d)" d="M 550.817647 252  L 550.817647 28.8  " style="fill:none;stroke:#000000;stroke-dasharray:1.000000,3.000000;stroke-dashoffset:0.0;stroke-width:0.5;"/>
     </g>
     <g id="line2d_13">
      <g>
       <use style="stroke:#000000;stroke-width:0.5;" x="550.817647059" xlink:href="#m541840abc0" y="252.0"/>
      </g>
     </g>
     <g id="line2d_14">
      <g>
       <use style="stroke:#000000;stroke-width:0.5;" x="550.817647059" xlink:href="#md430535a3f" y="28.8"/>
      </g>
     </g>
     <g id="text_4">
      <!-- 600 -->
      <defs>
       <path d="M 33.015625 40.375  Q 26.375 40.375 22.484375 35.828125  Q 18.609375 31.296875 18.609375 23.390625  Q 18.609375 15.53125 22.484375 10.953125  Q 26.375 6.390625 33.015625 6.390625  Q 39.65625 6.390625 43.53125 10.953125  Q 47.40625 15.53125 47.40625 23.390625  Q 47.40625 31.296875 43.53125 35.828125  Q 39.65625 40.375 33.015625 40.375  M 52.59375 71.296875  L 52.59375 62.3125  Q 48.875 64.0625 45.09375 64.984375  Q 41.3125 65.921875 37.59375 65.921875  Q 27.828125 65.921875 22.671875 59.328125  Q 17.53125 52.734375 16.796875 39.40625  Q 19.671875 43.65625 24.015625 45.921875  Q 28.375 48.1875 33.59375 48.1875  Q 44.578125 48.1875 50.953125 41.515625  Q 57.328125 34.859375 57.328125 23.390625  Q 57.328125 12.15625 50.6875 5.359375  Q 44.046875 -1.421875 33.015625 -1.421875  Q 20.359375 -1.421875 13.671875 8.265625  Q 6.984375 17.96875 6.984375 36.375  Q 6.984375 53.65625 15.1875 63.9375  Q 23.390625 74.21875 37.203125 74.21875  Q 40.921875 74.21875 44.703125 73.484375  Q 48.484375 72.75 52.59375 71.296875  " id="DejaVuSans-36"/>
      </defs>
      <g transform="translate(541.273897059 263.5984375)scale(0.1 -0.1)">
       <use xlink:href="#DejaVuSans-36"/>
       <use x="63.623046875" xlink:href="#DejaVuSans-30"/>
       <use x="127.24609375" xlink:href="#DejaVuSans-30"/>
      </g>
     </g>
    </g>
    <g id="xtick_5">
     <g id="line2d_15">
      <path clip-path="url(#pe06696868d)" d="M 693.052941 252  L 693.052941 28.8  " style="fill:none;stroke:#000000;stroke-dasharray:1.000000,3.000000;stroke-dashoffset:0.0;stroke-width:0.5;"/>
     </g>
     <g id="line2d_16">
      <g>
       <use style="stroke:#000000;stroke-width:0.5;" x="693.052941176" xlink:href="#m541840abc0" y="252.0"/>
      </g>
     </g>
     <g id="line2d_17">
      <g>
       <use style="stroke:#000000;stroke-width:0.5;" x="693.052941176" xlink:href="#md430535a3f" y="28.8"/>
      </g>
     </g>
     <g id="text_5">
      <!-- 800 -->
      <defs>
       <path d="M 31.78125 34.625  Q 24.75 34.625 20.71875 30.859375  Q 16.703125 27.09375 16.703125 20.515625  Q 16.703125 13.921875 20.71875 10.15625  Q 24.75 6.390625 31.78125 6.390625  Q 38.8125 6.390625 42.859375 10.171875  Q 46.921875 13.96875 46.921875 20.515625  Q 46.921875 27.09375 42.890625 30.859375  Q 38.875 34.625 31.78125 34.625  M 21.921875 38.8125  Q 15.578125 40.375 12.03125 44.71875  Q 8.5 49.078125 8.5 55.328125  Q 8.5 64.0625 14.71875 69.140625  Q 20.953125 74.21875 31.78125 74.21875  Q 42.671875 74.21875 48.875 69.140625  Q 55.078125 64.0625 55.078125 55.328125  Q 55.078125 49.078125 51.53125 44.71875  Q 48 40.375 41.703125 38.8125  Q 48.828125 37.15625 52.796875 32.3125  Q 56.78125 27.484375 56.78125 20.515625  Q 56.78125 9.90625 50.3125 4.234375  Q 43.84375 -1.421875 31.78125 -1.421875  Q 19.734375 -1.421875 13.25 4.234375  Q 6.78125 9.90625 6.78125 20.515625  Q 6.78125 27.484375 10.78125 32.3125  Q 14.796875 37.15625 21.921875 38.8125  M 18.3125 54.390625  Q 18.3125 48.734375 21.84375 45.5625  Q 25.390625 42.390625 31.78125 42.390625  Q 38.140625 42.390625 41.71875 45.5625  Q 45.3125 48.734375 45.3125 54.390625  Q 45.3125 60.0625 41.71875 63.234375  Q 38.140625 66.40625 31.78125 66.40625  Q 25.390625 66.40625 21.84375 63.234375  Q 18.3125 60.0625 18.3125 54.390625  " id="DejaVuSans-38"/>
      </defs>
      <g transform="translate(683.509191176 263.5984375)scale(0.1 -0.1)">
       <use xlink:href="#DejaVuSans-38"/>
       <use x="63.623046875" xlink:href="#DejaVuSans-30"/>
       <use x="127.24609375" xlink:href="#DejaVuSans-30"/>
      </g>
     </g>
    </g>
    <g id="xtick_6">
     <g id="line2d_18">
      <path clip-path="url(#pe06696868d)" d="M 835.288235 252  L 835.288235 28.8  " style="fill:none;stroke:#000000;stroke-dasharray:1.000000,3.000000;stroke-dashoffset:0.0;stroke-width:0.5;"/>
     </g>
     <g id="line2d_19">
      <g>
       <use style="stroke:#000000;stroke-width:0.5;" x="835.288235294" xlink:href="#m541840abc0" y="252.0"/>
      </g>
     </g>
     <g id="line2d_20">
      <g>
       <use style="stroke:#000000;stroke-width:0.5;" x="835.288235294" xlink:href="#md430535a3f" y="28.8"/>
      </g>
     </g>
     <g id="text_6">
      <!-- 1000 -->
      <defs>
       <path d="M 12.40625 8.296875  L 28.515625 8.296875  L 28.515625 63.921875  L 10.984375 60.40625  L 10.984375 69.390625  L 28.421875 72.90625  L 38.28125 72.90625  L 38.28125 8.296875  L 54.390625 8.296875  L 54.390625 0  L 12.40625 0  z " id="DejaVuSans-31"/>
      </defs>
      <g transform="translate(822.563235294 263.5984375)scale(0.1 -0.1)">
       <use xlink:href="#DejaVuSans-31"/>
       <use x="63.623046875" xlink:href="#DejaVuSans-30"/>
       <use x="127.24609375" xlink:href="#DejaVuSans-30"/>
       <use x="190.869140625" xlink:href="#DejaVuSans-30"/>
      </g>
     </g>
    </g>
   </g>
   <g id="matplotlib.axis_2">
    <g id="ytick_1">
     <g id="line2d_21">
      <path clip-path="url(#pe06696868d)" d="M 117 233.4  L 842.4 233.4  " style="fill:none;stroke:#000000;stroke-dasharray:1.000000,3.000000;stroke-dashoffset:0.0;stroke-width:0.5;"/>
     </g>
     <g id="line2d_22">
      <defs>
       <path d="M 0 0  L 4 0  " id="m9a8a132980" style="stroke:#000000;stroke-width:0.5;"/>
      </defs>
      <g>
       <use style="stroke:#000000;stroke-width:0.5;" x="117.0" xlink:href="#m9a8a132980" y="233.4"/>
      </g>
     </g>
     <g id="line2d_23">
      <defs>
       <path d="M 0 0  L -4 0  " id="mf57a2ca02f" style="stroke:#000000;stroke-width:0.5;"/>
      </defs>
      <g>
       <use style="stroke:#000000;stroke-width:0.5;" x="842.4" xlink:href="#mf57a2ca02f" y="233.4"/>
      </g>
     </g>
     <g id="text_7">
      <!-- 0.0 -->
      <defs>
       <path d="M 10.6875 12.40625  L 21 12.40625  L 21 0  L 10.6875 0  z " id="DejaVuSans-2e"/>
      </defs>
      <g transform="translate(97.096875 236.159375)scale(0.1 -0.1)">
       <use xlink:href="#DejaVuSans-30"/>
       <use x="63.623046875" xlink:href="#DejaVuSans-2e"/>
       <use x="95.41015625" xlink:href="#DejaVuSans-30"/>
      </g>
     </g>
    </g>
    <g id="ytick_2">
     <g id="line2d_24">
      <path clip-path="url(#pe06696868d)" d="M 117 196.2  L 842.4 196.2  " style="fill:none;stroke:#000000;stroke-dasharray:1.000000,3.000000;stroke-dashoffset:0.0;stroke-width:0.5;"/>
     </g>
     <g id="line2d_25">
      <g>
       <use style="stroke:#000000;stroke-width:0.5;" x="117.0" xlink:href="#m9a8a132980" y="196.2"/>
      </g>
     </g>
     <g id="line2d_26">
      <g>
       <use style="stroke:#000000;stroke-width:0.5;" x="842.4" xlink:href="#mf57a2ca02f" y="196.2"/>
      </g>
     </g>
     <g id="text_8">
      <!-- 0.2 -->
      <g transform="translate(97.096875 198.959375)scale(0.1 -0.1)">
       <use xlink:href="#DejaVuSans-30"/>
       <use x="63.623046875" xlink:href="#DejaVuSans-2e"/>
       <use x="95.41015625" xlink:href="#DejaVuSans-32"/>
      </g>
     </g>
    </g>
    <g id="ytick_3">
     <g id="line2d_27">
      <path clip-path="url(#pe06696868d)" d="M 117 159  L 842.4 159  " style="fill:none;stroke:#000000;stroke-dasharray:1.000000,3.000000;stroke-dashoffset:0.0;stroke-width:0.5;"/>
     </g>
     <g id="line2d_28">
      <g>
       <use style="stroke:#000000;stroke-width:0.5;" x="117.0" xlink:href="#m9a8a132980" y="159.0"/>
      </g>
     </g>
     <g id="line2d_29">
      <g>
       <use style="stroke:#000000;stroke-width:0.5;" x="842.4" xlink:href="#mf57a2ca02f" y="159.0"/>
      </g>
     </g>
     <g id="text_9">
      <!-- 0.4 -->
      <g transform="translate(97.096875 161.759375)scale(0.1 -0.1)">
       <use xlink:href="#DejaVuSans-30"/>
       <use x="63.623046875" xlink:href="#DejaVuSans-2e"/>
       <use x="95.41015625" xlink:href="#DejaVuSans-34"/>
      </g>
     </g>
    </g>
    <g id="ytick_4">
     <g id="line2d_30">
      <path clip-path="url(#pe06696868d)" d="M 117 121.8  L 842.4 121.8  " style="fill:none;stroke:#000000;stroke-dasharray:1.000000,3.000000;stroke-dashoffset:0.0;stroke-width:0.5;"/>
     </g>
     <g id="line2d_31">
      <g>
       <use style="stroke:#000000;stroke-width:0.5;" x="117.0" xlink:href="#m9a8a132980" y="121.8"/>
      </g>
     </g>
     <g id="line2d_32">
      <g>
       <use style="stroke:#000000;stroke-width:0.5;" x="842.4" xlink:href="#mf57a2ca02f" y="121.8"/>
      </g>
     </g>
     <g id="text_10">
      <!-- 0.6 -->
      <g transform="translate(97.096875 124.559375)scale(0.1 -0.1)">
       <use xlink:href="#DejaVuSans-30"/>
       <use x="63.623046875" xlink:href="#DejaVuSans-2e"/>
       <use x="95.41015625" xlink:href="#DejaVuSans-36"/>
      </g>
     </g>
    </g>
    <g id="ytick_5">
     <g id="line2d_33">
      <path clip-path="url(#pe06696868d)" d="M 117 84.6  L 842.4 84.6  " style="fill:none;stroke:#000000;stroke-dasharray:1.000000,3.000000;stroke-dashoffset:0.0;stroke-width:0.5;"/>
     </g>
     <g id="line2d_34">
      <g>
       <use style="stroke:#000000;stroke-width:0.5;" x="117.0" xlink:href="#m9a8a132980" y="84.6"/>
      </g>
     </g>
     <g id="line2d_35">
      <g>
       <use style="stroke:#000000;stroke-width:0.5;" x="842.4" xlink:href="#mf57a2ca02f" y="84.6"/>
      </g>
     </g>
     <g id="text_11">
      <!-- 0.8 -->
      <g transform="translate(97.096875 87.359375)scale(0.1 -0.1)">
       <use xlink:href="#DejaVuSans-30"/>
       <use x="63.623046875" xlink:href="#DejaVuSans-2e"/>
       <use x="95.41015625" xlink:href="#DejaVuSans-38"/>
      </g>
     </g>
    </g>
    <g id="ytick_6">
     <g id="line2d_36">
      <path clip-path="url(#pe06696868d)" d="M 117 47.4  L 842.4 47.4  " style="fill:none;stroke:#000000;stroke-dasharray:1.000000,3.000000;stroke-dashoffset:0.0;stroke-width:0.5;"/>
     </g>
     <g id="line2d_37">
      <g>
       <use style="stroke:#000000;stroke-width:0.5;" x="117.0" xlink:href="#m9a8a132980" y="47.4"/>
      </g>
     </g>
     <g id="line2d_38">
      <g>
       <use style="stroke:#000000;stroke-width:0.5;" x="842.4" xlink:href="#mf57a2ca02f" y="47.4"/>
      </g>
     </g>
     <g id="text_12">
      <!-- 1.0 -->
      <g transform="translate(97.096875 50.159375)scale(0.1 -0.1)">
       <use xlink:href="#DejaVuSans-31"/>
       <use x="63.623046875" xlink:href="#DejaVuSans-2e"/>
       <use x="95.41015625" xlink:href="#DejaVuSans-30"/>
      </g>
     </g>
    </g>
   </g>
   <g id="text_13">
    <!-- $Simulation\; parameters$ -->
    <defs>
     <path d="M 6.203125 8.109375  Q 6.203125 9.578125 6.5 10.890625  L 13.71875 39.59375  L 3.21875 39.59375  Q 2.203125 39.59375 2.203125 40.921875  Q 2.59375 43.109375 3.515625 43.109375  L 14.59375 43.109375  L 18.609375 59.421875  Q 19 60.75 20.171875 61.671875  Q 21.34375 62.59375 22.796875 62.59375  Q 24.078125 62.59375 24.921875 61.828125  Q 25.78125 61.078125 25.78125 59.8125  Q 25.78125 59.515625 25.75 59.34375  Q 25.734375 59.1875 25.6875 58.984375  L 21.6875 43.109375  L 31.984375 43.109375  Q 33.015625 43.109375 33.015625 41.796875  Q 32.953125 41.546875 32.8125 40.953125  Q 32.671875 40.375 32.421875 39.984375  Q 32.171875 39.59375 31.6875 39.59375  L 20.796875 39.59375  L 13.625 10.6875  Q 12.890625 7.859375 12.890625 5.8125  Q 12.890625 1.515625 15.828125 1.515625  Q 20.21875 1.515625 23.609375 5.640625  Q 27 9.765625 28.8125 14.703125  Q 29.203125 15.28125 29.59375 15.28125  L 30.8125 15.28125  Q 31.203125 15.28125 31.4375 15.015625  Q 31.6875 14.75 31.6875 14.40625  Q 31.6875 14.203125 31.59375 14.109375  Q 29.390625 8.0625 25.1875 3.46875  Q 21 -1.125 15.578125 -1.125  Q 11.625 -1.125 8.90625 1.453125  Q 6.203125 4.046875 6.203125 8.109375  " id="Cmmi10-74"/>
     <path d="M 8.6875 6.109375  Q 11.375 1.515625 19.484375 1.515625  Q 23 1.515625 26.171875 2.703125  Q 29.34375 3.90625 31.421875 6.296875  Q 33.5 8.6875 33.5 12.109375  Q 33.5 14.703125 31.640625 16.359375  Q 29.78125 18.015625 27.09375 18.609375  L 21.6875 19.671875  Q 17.96875 20.609375 15.578125 23.140625  Q 13.1875 25.6875 13.1875 29.296875  Q 13.1875 33.734375 15.59375 37.15625  Q 18.015625 40.578125 21.96875 42.375  Q 25.921875 44.1875 30.171875 44.1875  Q 34.71875 44.1875 38.296875 42.015625  Q 41.890625 39.84375 41.890625 35.59375  Q 41.890625 33.296875 40.59375 31.53125  Q 39.3125 29.78125 37.015625 29.78125  Q 35.6875 29.78125 34.734375 30.640625  Q 33.796875 31.5 33.796875 32.8125  Q 33.796875 33.984375 34.453125 35.078125  Q 35.109375 36.1875 36.203125 36.84375  Q 37.3125 37.5 38.484375 37.5  Q 37.59375 39.65625 35.171875 40.625  Q 32.765625 41.609375 29.984375 41.609375  Q 27.4375 41.609375 24.890625 40.578125  Q 22.359375 39.546875 20.8125 37.5625  Q 19.28125 35.59375 19.28125 32.90625  Q 19.28125 31.109375 20.546875 29.734375  Q 21.828125 28.375 23.6875 27.78125  L 29.5 26.609375  Q 32.28125 26.03125 34.59375 24.53125  Q 36.921875 23.046875 38.25 20.765625  Q 39.59375 18.5 39.59375 15.578125  Q 39.59375 11.859375 37.515625 8.25  Q 35.453125 4.640625 32.421875 2.484375  Q 27.09375 -1.125 19.390625 -1.125  Q 14.0625 -1.125 9.609375 1.3125  Q 5.171875 3.765625 5.171875 8.59375  Q 5.171875 11.328125 6.75 13.34375  Q 8.34375 15.375 11.078125 15.375  Q 12.703125 15.375 13.796875 14.390625  Q 14.890625 13.421875 14.890625 11.8125  Q 14.890625 9.515625 13.171875 7.8125  Q 11.46875 6.109375 9.1875 6.109375  z " id="Cmmi10-73"/>
     <path d="M 7.71875 1.703125  Q 7.71875 2.296875 7.8125 2.59375  L 15.28125 32.421875  Q 16.015625 35.203125 16.015625 37.3125  Q 16.015625 41.609375 13.09375 41.609375  Q 9.96875 41.609375 8.453125 37.859375  Q 6.9375 34.125 5.515625 28.421875  Q 5.515625 28.125 5.21875 27.953125  Q 4.9375 27.78125 4.6875 27.78125  L 3.515625 27.78125  Q 3.171875 27.78125 2.921875 28.140625  Q 2.6875 28.515625 2.6875 28.8125  Q 3.765625 33.15625 4.765625 36.171875  Q 5.765625 39.203125 7.890625 41.6875  Q 10.015625 44.1875 13.1875 44.1875  Q 16.9375 44.1875 19.8125 41.8125  Q 22.703125 39.453125 22.703125 35.796875  Q 25.6875 39.703125 29.6875 41.9375  Q 33.6875 44.1875 38.1875 44.1875  Q 41.75 44.1875 44.328125 42.96875  Q 46.921875 41.75 48.359375 39.28125  Q 49.8125 36.8125 49.8125 33.40625  Q 49.8125 29.296875 47.96875 23.484375  Q 46.140625 17.671875 43.40625 10.5  Q 42 7.234375 42 4.5  Q 42 1.515625 44.28125 1.515625  Q 48.1875 1.515625 50.796875 5.703125  Q 53.421875 9.90625 54.5 14.703125  Q 54.6875 15.28125 55.328125 15.28125  L 56.5 15.28125  Q 56.890625 15.28125 57.15625 15.03125  Q 57.421875 14.796875 57.421875 14.40625  Q 57.421875 14.3125 57.328125 14.109375  Q 55.953125 8.453125 52.5625 3.65625  Q 49.171875 -1.125 44.09375 -1.125  Q 40.578125 -1.125 38.078125 1.296875  Q 35.59375 3.71875 35.59375 7.171875  Q 35.59375 9.03125 36.375 11.078125  Q 37.640625 14.359375 39.28125 18.890625  Q 40.921875 23.4375 41.96875 27.578125  Q 43.015625 31.734375 43.015625 34.90625  Q 43.015625 37.703125 41.859375 39.65625  Q 40.71875 41.609375 37.984375 41.609375  Q 34.328125 41.609375 31.25 39.984375  Q 28.171875 38.375 25.875 35.71875  Q 23.578125 33.0625 21.6875 29.390625  L 14.890625 2.203125  Q 14.546875 0.828125 13.34375 -0.140625  Q 12.15625 -1.125 10.6875 -1.125  Q 9.46875 -1.125 8.59375 -0.34375  Q 7.71875 0.4375 7.71875 1.703125  " id="Cmmi10-6e"/>
     <path d="M 7.71875 1.703125  Q 7.71875 2.296875 7.8125 2.59375  L 15.28125 32.421875  Q 16.015625 35.203125 16.015625 37.3125  Q 16.015625 41.609375 13.09375 41.609375  Q 9.96875 41.609375 8.453125 37.859375  Q 6.9375 34.125 5.515625 28.421875  Q 5.515625 28.125 5.21875 27.953125  Q 4.9375 27.78125 4.6875 27.78125  L 3.515625 27.78125  Q 3.171875 27.78125 2.921875 28.140625  Q 2.6875 28.515625 2.6875 28.8125  Q 3.765625 33.15625 4.765625 36.171875  Q 5.765625 39.203125 7.890625 41.6875  Q 10.015625 44.1875 13.1875 44.1875  Q 16.9375 44.1875 19.8125 41.8125  Q 22.703125 39.453125 22.703125 35.796875  Q 25.6875 39.703125 29.6875 41.9375  Q 33.6875 44.1875 38.1875 44.1875  Q 42.921875 44.1875 46.359375 41.765625  Q 49.8125 39.359375 49.8125 34.90625  Q 52.875 39.265625 57 41.71875  Q 61.140625 44.1875 66.015625 44.1875  Q 71.1875 44.1875 74.328125 41.375  Q 77.484375 38.578125 77.484375 33.40625  Q 77.484375 29.296875 75.65625 23.484375  Q 73.828125 17.671875 71.09375 10.5  Q 69.671875 7.03125 69.671875 4.5  Q 69.671875 1.515625 72.015625 1.515625  Q 75.921875 1.515625 78.515625 5.703125  Q 81.109375 9.90625 82.171875 14.703125  Q 82.46875 15.28125 83.015625 15.28125  L 84.1875 15.28125  Q 84.578125 15.28125 84.84375 15.015625  Q 85.109375 14.75 85.109375 14.40625  Q 85.109375 14.3125 85.015625 14.109375  Q 83.640625 8.453125 80.25 3.65625  Q 76.859375 -1.125 71.78125 -1.125  Q 68.265625 -1.125 65.765625 1.296875  Q 63.28125 3.71875 63.28125 7.171875  Q 63.28125 8.9375 64.109375 11.078125  Q 66.9375 18.609375 68.8125 24.515625  Q 70.703125 30.421875 70.703125 34.90625  Q 70.703125 37.703125 69.578125 39.65625  Q 68.453125 41.609375 65.828125 41.609375  Q 60.359375 41.609375 56.34375 38.25  Q 52.34375 34.90625 49.421875 29.390625  Q 49.21875 28.421875 49.125 27.875  L 42.671875 2.203125  Q 42.328125 0.828125 41.125 -0.140625  Q 39.9375 -1.125 38.484375 -1.125  Q 37.3125 -1.125 36.40625 -0.34375  Q 35.5 0.4375 35.5 1.703125  Q 35.5 2.296875 35.59375 2.59375  L 42 28.078125  Q 43.015625 32.171875 43.015625 34.90625  Q 43.015625 37.703125 41.859375 39.65625  Q 40.71875 41.609375 37.984375 41.609375  Q 34.328125 41.609375 31.25 39.984375  Q 28.171875 38.375 25.875 35.71875  Q 23.578125 33.0625 21.6875 29.390625  L 14.890625 2.203125  Q 14.546875 0.828125 13.34375 -0.140625  Q 12.15625 -1.125 10.6875 -1.125  Q 9.46875 -1.125 8.59375 -0.34375  Q 7.71875 0.4375 7.71875 1.703125  " id="Cmmi10-6d"/>
     <path d="M -2.484375 -19.390625  Q -3.421875 -19.390625 -3.421875 -18.109375  Q -3.078125 -15.921875 -2.09375 -15.921875  Q 1.03125 -15.921875 2.265625 -15.359375  Q 3.515625 -14.796875 4.203125 -12.5  L 15.484375 32.515625  Q 16.21875 34.375 16.21875 37.3125  Q 16.21875 41.609375 13.28125 41.609375  Q 10.15625 41.609375 8.640625 37.859375  Q 7.125 34.125 5.71875 28.421875  Q 5.71875 27.78125 4.890625 27.78125  L 3.71875 27.78125  Q 3.46875 27.78125 3.171875 28.140625  Q 2.875 28.515625 2.875 28.8125  Q 3.953125 33.15625 4.953125 36.171875  Q 5.953125 39.203125 8.078125 41.6875  Q 10.203125 44.1875 13.375 44.1875  Q 16.796875 44.1875 19.375 42.25  Q 21.96875 40.328125 22.703125 37.015625  Q 25.4375 40.1875 28.75 42.1875  Q 32.078125 44.1875 35.59375 44.1875  Q 39.796875 44.1875 42.890625 41.9375  Q 46 39.703125 47.5625 36.0625  Q 49.125 32.421875 49.125 28.21875  Q 49.125 21.78125 45.828125 14.890625  Q 42.53125 8.015625 36.890625 3.4375  Q 31.25 -1.125 24.8125 -1.125  Q 21.875 -1.125 19.5 0.53125  Q 17.140625 2.203125 15.828125 4.890625  L 11.28125 -12.890625  Q 11.03125 -14.359375 10.984375 -14.59375  Q 10.984375 -15.921875 17.578125 -15.921875  Q 18.609375 -15.921875 18.609375 -17.1875  Q 18.265625 -18.5 18.046875 -18.9375  Q 17.828125 -19.390625 16.890625 -19.390625  z M 24.90625 1.515625  Q 28.375 1.515625 31.34375 4.375  Q 34.328125 7.234375 36.1875 10.796875  Q 37.546875 13.484375 38.734375 17.359375  Q 39.9375 21.234375 40.8125 25.625  Q 41.703125 30.03125 41.703125 32.625  Q 41.703125 34.90625 41.09375 36.90625  Q 40.484375 38.921875 39.09375 40.265625  Q 37.703125 41.609375 35.40625 41.609375  Q 31.734375 41.609375 28.484375 38.984375  Q 25.25 36.375 22.609375 32.515625  L 22.609375 32.171875  L 17.09375 10.109375  Q 17.78125 6.546875 19.734375 4.03125  Q 21.6875 1.515625 24.90625 1.515625  " id="Cmmi10-70"/>
     <path d="M 20.125 -1.125  Q 15.375 -1.125 11.6875 1.125  Q 8.015625 3.375 6 7.171875  Q 4 10.984375 4 15.828125  Q 4 22.609375 7.78125 29.25  Q 11.578125 35.890625 17.84375 40.03125  Q 24.125 44.1875 31 44.1875  Q 34.71875 44.1875 37.625 42.921875  Q 40.53125 41.65625 42.671875 39.359375  Q 44.828125 37.0625 45.96875 33.984375  Q 47.125 30.90625 47.125 27.296875  Q 47.125 22.078125 44.921875 17.015625  Q 42.71875 11.96875 38.890625 7.84375  Q 35.0625 3.71875 30.125 1.296875  Q 25.203125 -1.125 20.125 -1.125  M 20.3125 1.515625  Q 24.75 1.515625 28.4375 4.53125  Q 32.125 7.5625 34.484375 12.171875  Q 36.859375 16.796875 38.125 21.921875  Q 39.40625 27.046875 39.40625 31.203125  Q 39.40625 35.546875 37.234375 38.578125  Q 35.0625 41.609375 30.8125 41.609375  Q 24.953125 41.609375 20.546875 36.59375  Q 16.15625 31.59375 13.9375 24.625  Q 11.71875 17.671875 11.71875 11.921875  Q 11.71875 7.5625 13.9375 4.53125  Q 16.15625 1.515625 20.3125 1.515625  " id="Cmmi10-6f"/>
     <path d="M 20.125 -1.125  Q 15.328125 -1.125 11.734375 1.359375  Q 8.15625 3.859375 6.265625 8.078125  Q 4.390625 12.3125 4.390625 17  Q 4.390625 24.125 7.984375 30.390625  Q 11.578125 36.671875 17.71875 40.421875  Q 23.875 44.1875 30.90625 44.1875  Q 35.203125 44.1875 38.40625 41.96875  Q 41.609375 39.75 41.609375 35.59375  Q 41.609375 29.828125 37.015625 27.015625  Q 32.421875 24.21875 26.65625 23.5625  Q 20.90625 22.90625 13.921875 22.90625  L 13.625 22.90625  Q 12.015625 16.9375 12.015625 12.703125  Q 12.015625 8.25 14.0625 4.875  Q 16.109375 1.515625 20.3125 1.515625  Q 26.265625 1.515625 31.75 4.25  Q 37.25 6.984375 40.71875 11.8125  Q 41.015625 12.109375 41.5 12.109375  Q 42 12.109375 42.5 11.546875  Q 43.015625 10.984375 43.015625 10.5  Q 43.015625 10.109375 42.828125 9.90625  Q 39.15625 4.78125 32.953125 1.828125  Q 26.765625 -1.125 20.125 -1.125  M 14.203125 25.484375  Q 20.015625 25.484375 24.953125 26.015625  Q 29.890625 26.5625 33.890625 28.734375  Q 37.890625 30.90625 37.890625 35.5  Q 37.890625 37.359375 36.859375 38.75  Q 35.84375 40.140625 34.203125 40.875  Q 32.5625 41.609375 30.8125 41.609375  Q 26.5625 41.609375 23.171875 39.3125  Q 19.78125 37.015625 17.578125 33.328125  Q 15.375 29.640625 14.203125 25.484375  " id="Cmmi10-65"/>
     <path d="M 7.71875 1.703125  Q 7.71875 2.296875 7.8125 2.59375  L 15.28125 32.421875  Q 16.015625 35.203125 16.015625 37.3125  Q 16.015625 41.609375 13.09375 41.609375  Q 9.96875 41.609375 8.453125 37.859375  Q 6.9375 34.125 5.515625 28.421875  Q 5.515625 28.125 5.21875 27.953125  Q 4.9375 27.78125 4.6875 27.78125  L 3.515625 27.78125  Q 3.171875 27.78125 2.921875 28.140625  Q 2.6875 28.515625 2.6875 28.8125  Q 3.765625 33.15625 4.765625 36.171875  Q 5.765625 39.203125 7.890625 41.6875  Q 10.015625 44.1875 13.1875 44.1875  Q 16.65625 44.1875 19.265625 42.1875  Q 21.875 40.1875 22.515625 36.921875  Q 25.046875 40.234375 28.296875 42.203125  Q 31.546875 44.1875 35.40625 44.1875  Q 38.578125 44.1875 40.984375 42.328125  Q 43.40625 40.484375 43.40625 37.3125  Q 43.40625 34.765625 41.8125 32.875  Q 40.234375 31 37.59375 31  Q 35.984375 31 34.890625 32  Q 33.796875 33.015625 33.796875 34.625  Q 33.796875 36.8125 35.40625 38.546875  Q 37.015625 40.28125 39.109375 40.28125  Q 37.5 41.609375 35.203125 41.609375  Q 30.90625 41.609375 27.734375 38.546875  Q 24.5625 35.5 22.015625 30.8125  L 14.890625 2.203125  Q 14.546875 0.828125 13.34375 -0.140625  Q 12.15625 -1.125 10.6875 -1.125  Q 9.46875 -1.125 8.59375 -0.34375  Q 7.71875 0.4375 7.71875 1.703125  " id="Cmmi10-72"/>
     <path d="M 6.109375 -2.203125  Q 5.8125 -2.203125 5.5625 -1.859375  Q 5.328125 -1.515625 5.328125 -1.21875  L 11.078125 22.125  Q 11.28125 22.703125 11.921875 22.703125  L 13.09375 22.703125  Q 13.484375 22.703125 13.703125 22.40625  Q 13.921875 22.125 13.921875 21.6875  Q 13.09375 18.265625 13.09375 15.578125  Q 13.09375 8.34375 18.0625 4.828125  Q 23.046875 1.3125 30.609375 1.3125  Q 33.890625 1.3125 37.0625 2.921875  Q 40.234375 4.546875 42.59375 7.125  Q 44.96875 9.71875 46.375 12.90625  Q 47.796875 16.109375 47.796875 19.390625  Q 47.796875 22.90625 45.9375 25.65625  Q 44.09375 28.421875 40.828125 29.203125  L 28.609375 32.421875  Q 23.6875 33.734375 20.75 37.71875  Q 17.828125 41.703125 17.828125 46.6875  Q 17.828125 52.6875 21.390625 58.25  Q 24.953125 63.8125 30.6875 67.15625  Q 36.421875 70.515625 42.390625 70.515625  Q 46.96875 70.515625 50.796875 68.828125  Q 54.640625 67.140625 56.6875 63.484375  L 62.40625 70.21875  Q 62.984375 70.515625 63.09375 70.515625  L 63.71875 70.515625  Q 64.109375 70.515625 64.34375 70.171875  Q 64.59375 69.828125 64.59375 69.484375  L 58.796875 46.296875  Q 58.640625 45.609375 58.015625 45.609375  L 56.78125 45.609375  Q 55.90625 45.609375 55.90625 46.6875  Q 56.390625 49.859375 56.390625 52.203125  Q 56.390625 56.84375 54.796875 60.28125  Q 53.21875 63.71875 50.015625 65.5  Q 46.828125 67.28125 42.09375 67.28125  Q 38.09375 67.28125 34.125 64.984375  Q 30.171875 62.703125 27.734375 58.890625  Q 25.296875 55.078125 25.296875 50.984375  Q 25.296875 47.75 27.171875 45.265625  Q 29.046875 42.78125 32.171875 41.890625  L 44.390625 38.71875  Q 47.703125 37.84375 50.171875 35.625  Q 52.640625 33.40625 53.90625 30.34375  Q 55.171875 27.296875 55.171875 23.6875  Q 55.171875 18.953125 53.171875 14.328125  Q 51.171875 9.71875 47.578125 5.90625  Q 44 2.09375 39.453125 -0.046875  Q 34.90625 -2.203125 30.171875 -2.203125  Q 18.265625 -2.203125 13.09375 4.78125  L 7.515625 -1.90625  Q 6.9375 -2.203125 6.78125 -2.203125  z " id="Cmmi10-53"/>
     <path d="M 10.59375 10.890625  Q 10.59375 14.15625 11.46875 17.59375  Q 12.359375 21.046875 13.9375 25.265625  Q 15.53125 29.5 16.703125 32.625  Q 18.015625 36.28125 18.015625 38.625  Q 18.015625 41.609375 15.828125 41.609375  Q 11.859375 41.609375 9.296875 37.53125  Q 6.734375 33.453125 5.515625 28.421875  Q 5.328125 27.78125 4.6875 27.78125  L 3.515625 27.78125  Q 2.6875 27.78125 2.6875 28.71875  L 2.6875 29  Q 4.296875 34.96875 7.609375 39.578125  Q 10.9375 44.1875 16.015625 44.1875  Q 19.578125 44.1875 22.046875 41.84375  Q 24.515625 39.5 24.515625 35.890625  Q 24.515625 34.03125 23.6875 31.984375  Q 23.25 30.765625 21.6875 26.65625  Q 20.125 22.5625 19.28125 19.875  Q 18.453125 17.1875 17.921875 14.59375  Q 17.390625 12.015625 17.390625 9.421875  Q 17.390625 6.109375 18.796875 3.8125  Q 20.21875 1.515625 23.390625 1.515625  Q 29.78125 1.515625 34.625 9.421875  Q 34.71875 9.8125 34.78125 10.171875  Q 34.859375 10.546875 34.90625 10.890625  L 42.09375 39.890625  Q 42.4375 41.21875 43.65625 42.15625  Q 44.875 43.109375 46.296875 43.109375  Q 47.515625 43.109375 48.40625 42.328125  Q 49.3125 41.546875 49.3125 40.28125  Q 49.3125 39.703125 49.21875 39.5  L 42 10.6875  Q 41.3125 7.71875 41.3125 5.8125  Q 41.3125 1.515625 44.1875 1.515625  Q 47.40625 1.515625 49 5.484375  Q 50.59375 9.46875 51.703125 14.703125  Q 51.90625 15.28125 52.484375 15.28125  L 53.71875 15.28125  Q 54.109375 15.28125 54.34375 14.9375  Q 54.59375 14.59375 54.59375 14.3125  Q 53.515625 10.015625 52.515625 6.9375  Q 51.515625 3.859375 49.359375 1.359375  Q 47.21875 -1.125 44 -1.125  Q 40.828125 -1.125 38.3125 0.609375  Q 35.796875 2.34375 34.90625 5.328125  Q 32.625 2.390625 29.59375 0.625  Q 26.5625 -1.125 23.1875 -1.125  Q 17.4375 -1.125 14.015625 2.015625  Q 10.59375 5.171875 10.59375 10.890625  " id="Cmmi10-75"/>
     <path d="M 7.8125 7.171875  Q 7.8125 9.03125 8.59375 11.078125  L 16.703125 32.625  Q 18.015625 36.28125 18.015625 38.625  Q 18.015625 41.609375 15.828125 41.609375  Q 11.859375 41.609375 9.296875 37.53125  Q 6.734375 33.453125 5.515625 28.421875  Q 5.328125 27.78125 4.6875 27.78125  L 3.515625 27.78125  Q 2.6875 27.78125 2.6875 28.71875  L 2.6875 29  Q 4.296875 34.96875 7.609375 39.578125  Q 10.9375 44.1875 16.015625 44.1875  Q 19.578125 44.1875 22.046875 41.84375  Q 24.515625 39.5 24.515625 35.890625  Q 24.515625 34.03125 23.6875 31.984375  L 15.578125 10.5  Q 14.203125 7.171875 14.203125 4.5  Q 14.203125 1.515625 16.5 1.515625  Q 20.40625 1.515625 23.015625 5.6875  Q 25.640625 9.859375 26.703125 14.703125  Q 26.90625 15.28125 27.484375 15.28125  L 28.71875 15.28125  Q 29.109375 15.28125 29.34375 15.015625  Q 29.59375 14.75 29.59375 14.40625  Q 29.59375 14.3125 29.5 14.109375  Q 28.125 8.453125 24.734375 3.65625  Q 21.34375 -1.125 16.3125 -1.125  Q 12.796875 -1.125 10.296875 1.296875  Q 7.8125 3.71875 7.8125 7.171875  M 19.09375 60.59375  Q 19.09375 62.703125 20.84375 64.40625  Q 22.609375 66.109375 24.703125 66.109375  Q 26.421875 66.109375 27.515625 65.0625  Q 28.609375 64.015625 28.609375 62.40625  Q 28.609375 60.15625 26.828125 58.46875  Q 25.046875 56.78125 22.90625 56.78125  Q 21.296875 56.78125 20.1875 57.875  Q 19.09375 58.984375 19.09375 60.59375  " id="Cmmi10-69"/>
     <path d="M 4.390625 8.109375  Q 4.390625 8.40625 4.46875 8.984375  Q 4.546875 9.578125 4.609375 10.125  Q 4.6875 10.6875 4.6875 10.984375  L 17.09375 60.5  Q 17.484375 62.203125 17.578125 63.1875  Q 17.578125 64.796875 11.078125 64.796875  Q 10.109375 64.796875 10.109375 66.109375  Q 10.15625 66.359375 10.328125 66.984375  Q 10.5 67.625 10.765625 67.96875  Q 11.03125 68.3125 11.53125 68.3125  L 25 69.390625  Q 26.21875 69.390625 26.21875 68.109375  L 11.8125 10.59375  Q 11.078125 8.984375 11.078125 5.8125  Q 11.078125 1.515625 14.015625 1.515625  Q 17.09375 1.515625 18.625 5.34375  Q 20.171875 9.1875 21.390625 14.703125  Q 21.578125 15.28125 22.21875 15.28125  L 23.390625 15.28125  Q 23.78125 15.28125 24.046875 14.96875  Q 24.3125 14.65625 24.3125 14.3125  Q 23.140625 9.46875 22.1875 6.65625  Q 21.234375 3.859375 19.140625 1.359375  Q 17.046875 -1.125 13.8125 -1.125  Q 9.8125 -1.125 7.09375 1.453125  Q 4.390625 4.046875 4.390625 8.109375  " id="Cmmi10-6c"/>
     <path d="M 17.390625 -1.125  Q 11.078125 -1.125 7.4375 3.640625  Q 3.8125 8.40625 3.8125 14.890625  Q 3.8125 21.296875 7.125 28.171875  Q 10.453125 35.0625 16.09375 39.625  Q 21.734375 44.1875 28.21875 44.1875  Q 31.203125 44.1875 33.546875 42.578125  Q 35.890625 40.96875 37.203125 38.1875  Q 38.328125 42.1875 41.609375 42.1875  Q 42.875 42.1875 43.71875 41.421875  Q 44.578125 40.671875 44.578125 39.40625  Q 44.578125 39.109375 44.546875 38.953125  Q 44.53125 38.8125 44.484375 38.625  L 37.5 10.6875  Q 36.8125 7.71875 36.8125 5.8125  Q 36.8125 1.515625 39.703125 1.515625  Q 42.828125 1.515625 44.453125 5.484375  Q 46.09375 9.46875 47.21875 14.703125  Q 47.40625 15.28125 48 15.28125  L 49.21875 15.28125  Q 49.609375 15.28125 49.84375 14.9375  Q 50.09375 14.59375 50.09375 14.3125  Q 48.34375 7.328125 46.265625 3.09375  Q 44.1875 -1.125 39.5 -1.125  Q 36.140625 -1.125 33.546875 0.84375  Q 30.953125 2.828125 30.328125 6.109375  Q 23.875 -1.125 17.390625 -1.125  M 17.484375 1.515625  Q 21.09375 1.515625 24.484375 4.21875  Q 27.875 6.9375 30.328125 10.59375  Q 30.421875 10.6875 30.421875 10.890625  L 35.796875 32.625  L 35.890625 32.90625  Q 35.296875 36.46875 33.3125 39.03125  Q 31.34375 41.609375 27.984375 41.609375  Q 24.609375 41.609375 21.703125 38.84375  Q 18.796875 36.078125 16.796875 32.328125  Q 14.84375 28.328125 13.0625 21.34375  Q 11.28125 14.359375 11.28125 10.5  Q 11.28125 7.03125 12.765625 4.265625  Q 14.265625 1.515625 17.484375 1.515625  " id="Cmmi10-61"/>
    </defs>
    <g transform="translate(607.711764706 112.5)scale(0.2 -0.2)">
     <use transform="translate(0.0 0.484375)" xlink:href="#Cmmi10-53"/>
     <use transform="translate(61.279296875 0.484375)" xlink:href="#Cmmi10-69"/>
     <use transform="translate(95.703125 0.484375)" xlink:href="#Cmmi10-6d"/>
     <use transform="translate(183.49609375 0.484375)" xlink:href="#Cmmi10-75"/>
     <use transform="translate(240.673828125 0.484375)" xlink:href="#Cmmi10-6c"/>
     <use transform="translate(270.458984375 0.484375)" xlink:href="#Cmmi10-61"/>
     <use transform="translate(323.2421875 0.484375)" xlink:href="#Cmmi10-74"/>
     <use transform="translate(359.326171875 0.484375)" xlink:href="#Cmmi10-69"/>
     <use transform="translate(393.75 0.484375)" xlink:href="#Cmmi10-6f"/>
     <use transform="translate(442.138671875 0.484375)" xlink:href="#Cmmi10-6e"/>
     <use transform="translate(526.535568359375 0.484375)" xlink:href="#Cmmi10-70"/>
     <use transform="translate(576.828537109375 0.484375)" xlink:href="#Cmmi10-61"/>
     <use transform="translate(629.611740234375 0.484375)" xlink:href="#Cmmi10-72"/>
     <use transform="translate(674.728927734375 0.484375)" xlink:href="#Cmmi10-61"/>
     <use transform="translate(727.512130859375 0.484375)" xlink:href="#Cmmi10-6d"/>
     <use transform="translate(815.305099609375 0.484375)" xlink:href="#Cmmi10-65"/>
     <use transform="translate(861.789474609375 0.484375)" xlink:href="#Cmmi10-74"/>
     <use transform="translate(897.873458984375 0.484375)" xlink:href="#Cmmi10-65"/>
     <use transform="translate(944.357833984375 0.484375)" xlink:href="#Cmmi10-72"/>
     <use transform="translate(989.475021484375 0.484375)" xlink:href="#Cmmi10-73"/>
    </g>
   </g>
   <g id="text_14">
    <!-- $\epsilon = 1.00\; D = 100.00$ -->
    <defs>
     <path d="M 9.28125 0  L 9.28125 3.515625  Q 21.78125 3.515625 21.78125 6.6875  L 21.78125 59.1875  Q 16.609375 56.6875 8.6875 56.6875  L 8.6875 60.203125  Q 20.953125 60.203125 27.203125 66.609375  L 28.609375 66.609375  Q 28.953125 66.609375 29.265625 66.328125  Q 29.59375 66.0625 29.59375 65.71875  L 29.59375 6.6875  Q 29.59375 3.515625 42.09375 3.515625  L 42.09375 0  z " id="Cmr10-31"/>
     <path d="M 7.515625 13.28125  Q 6.6875 13.28125 6.140625 13.90625  Q 5.609375 14.546875 5.609375 15.28125  Q 5.609375 16.109375 6.140625 16.6875  Q 6.6875 17.28125 7.515625 17.28125  L 70.3125 17.28125  Q 71.046875 17.28125 71.578125 16.6875  Q 72.125 16.109375 72.125 15.28125  Q 72.125 14.546875 71.578125 13.90625  Q 71.046875 13.28125 70.3125 13.28125  z M 7.515625 32.71875  Q 6.6875 32.71875 6.140625 33.296875  Q 5.609375 33.890625 5.609375 34.71875  Q 5.609375 35.453125 6.140625 36.078125  Q 6.6875 36.71875 7.515625 36.71875  L 70.3125 36.71875  Q 71.046875 36.71875 71.578125 36.078125  Q 72.125 35.453125 72.125 34.71875  Q 72.125 33.890625 71.578125 33.296875  Q 71.046875 32.71875 70.3125 32.71875  z " id="Cmr10-3d"/>
     <path d="M 25 -2.203125  Q 12.75 -2.203125 8.328125 7.875  Q 3.90625 17.96875 3.90625 31.890625  Q 3.90625 40.578125 5.484375 48.234375  Q 7.078125 55.90625 11.78125 61.25  Q 16.5 66.609375 25 66.609375  Q 31.59375 66.609375 35.78125 63.375  Q 39.984375 60.15625 42.1875 55.046875  Q 44.390625 49.953125 45.1875 44.109375  Q 46 38.28125 46 31.890625  Q 46 23.296875 44.40625 15.796875  Q 42.828125 8.296875 38.1875 3.046875  Q 33.546875 -2.203125 25 -2.203125  M 25 0.390625  Q 30.5625 0.390625 33.296875 6.09375  Q 36.03125 11.8125 36.671875 18.75  Q 37.3125 25.6875 37.3125 33.5  Q 37.3125 41.015625 36.671875 47.359375  Q 36.03125 53.71875 33.3125 58.859375  Q 30.609375 64.015625 25 64.015625  Q 19.34375 64.015625 16.609375 58.828125  Q 13.875 53.65625 13.234375 47.328125  Q 12.59375 41.015625 12.59375 33.5  Q 12.59375 27.9375 12.859375 23  Q 13.140625 18.0625 14.3125 12.8125  Q 15.484375 7.5625 18.09375 3.96875  Q 20.703125 0.390625 25 0.390625  " id="Cmr10-30"/>
     <path d="M 4.890625 0  Q 3.90625 0 3.90625 1.3125  Q 3.953125 1.5625 4.09375 2.171875  Q 4.25 2.78125 4.515625 3.140625  Q 4.78125 3.515625 5.171875 3.515625  Q 11.28125 3.515625 13.71875 4.203125  Q 14.984375 4.640625 15.578125 6.890625  L 29.296875 61.8125  Q 29.5 62.796875 29.5 63.1875  Q 29.5 64.265625 28.328125 64.40625  Q 26.421875 64.796875 21.09375 64.796875  Q 20.125 64.796875 20.125 66.109375  Q 20.171875 66.359375 20.3125 66.96875  Q 20.453125 67.578125 20.71875 67.9375  Q 21 68.3125 21.390625 68.3125  L 57.328125 68.3125  Q 64.3125 68.3125 69.53125 64.921875  Q 74.75 61.53125 77.53125 55.78125  Q 80.328125 50.046875 80.328125 43.109375  Q 80.328125 35.453125 77.140625 27.78125  Q 73.96875 20.125 68.25 13.765625  Q 62.546875 7.421875 55.21875 3.703125  Q 47.90625 0 40.1875 0  z M 23.578125 4.296875  Q 23.578125 3.515625 27 3.515625  L 38.625 3.515625  Q 44.1875 3.515625 49.359375 5.8125  Q 54.546875 8.109375 58.59375 12.109375  Q 62.359375 15.875 65.234375 21.96875  Q 68.109375 28.078125 69.703125 34.71875  Q 71.296875 41.359375 71.296875 46.921875  Q 71.296875 50.984375 70.09375 54.25  Q 68.890625 57.515625 66.71875 59.859375  Q 64.546875 62.203125 61.28125 63.5  Q 58.015625 64.796875 53.90625 64.796875  L 42.921875 64.796875  Q 40.1875 64.796875 39.296875 64.328125  Q 38.421875 63.875 37.703125 61.375  L 24.03125 6.5  Q 23.578125 5.28125 23.578125 4.296875  " id="Cmmi10-44"/>
     <path d="M 8.40625 5.515625  Q 8.40625 7.765625 10.0625 9.375  Q 11.71875 10.984375 13.921875 10.984375  Q 15.28125 10.984375 16.59375 10.25  Q 17.921875 9.515625 18.65625 8.203125  Q 19.390625 6.890625 19.390625 5.515625  Q 19.390625 3.328125 17.765625 1.65625  Q 16.15625 0 13.921875 0  Q 11.71875 0 10.0625 1.65625  Q 8.40625 3.328125 8.40625 5.515625  " id="Cmmi10-3a"/>
     <path d="M 12.3125 14.109375  Q 12.3125 10.75 13.53125 7.859375  Q 14.75 4.984375 17.203125 3.25  Q 19.671875 1.515625 23 1.515625  Q 25.25 1.515625 27.78125 2.484375  Q 30.328125 3.46875 32.5 4.640625  Q 34.671875 5.8125 34.71875 5.8125  Q 35.25 5.8125 35.5625 5.203125  Q 35.890625 4.59375 35.890625 4  Q 35.890625 3.46875 35.59375 3.328125  Q 29.34375 -1.125 22.90625 -1.125  Q 17.625 -1.125 13.375 1.34375  Q 9.125 3.8125 6.8125 8.203125  Q 4.5 12.59375 4.5 17.828125  Q 4.5 23 6.59375 27.65625  Q 8.6875 32.328125 12.390625 35.796875  Q 16.109375 39.265625 20.796875 41.1875  Q 25.484375 43.109375 30.609375 43.109375  L 36.28125 43.109375  Q 37.796875 43.109375 37.796875 41.609375  Q 37.796875 40.765625 37.234375 40.171875  Q 36.671875 39.59375 35.890625 39.59375  L 30.421875 39.59375  Q 26.421875 39.59375 23.171875 37.828125  Q 19.921875 36.078125 17.71875 32.953125  Q 15.53125 29.828125 14.3125 25.875  L 31.984375 25.875  Q 32.671875 25.875 33.078125 25.453125  Q 33.5 25.046875 33.5 24.421875  Q 33.5 23.578125 32.953125 22.984375  Q 32.421875 22.40625 31.59375 22.40625  L 13.375 22.40625  Q 12.3125 17.234375 12.3125 14.109375  " id="Cmmi10-b2"/>
    </defs>
    <g transform="translate(607.711764706 140.4)scale(0.2 -0.2)">
     <use transform="translate(0.0 0.6875)" xlink:href="#Cmmi10-b2"/>
     <use transform="translate(58.037109375 0.6875)" xlink:href="#Cmr10-3d"/>
     <use transform="translate(153.28125 0.6875)" xlink:href="#Cmr10-31"/>
     <use transform="translate(203.28125 0.6875)" xlink:href="#Cmmi10-3a"/>
     <use transform="translate(248.525390625 0.6875)" xlink:href="#Cmr10-30"/>
     <use transform="translate(298.525390625 0.6875)" xlink:href="#Cmr10-30"/>
     <use transform="translate(372.912521484375 0.6875)" xlink:href="#Cmmi10-44"/>
     <use transform="translate(473.185958984375 0.6875)" xlink:href="#Cmr10-3d"/>
     <use transform="translate(568.430099609375 0.6875)" xlink:href="#Cmr10-31"/>
     <use transform="translate(618.430099609375 0.6875)" xlink:href="#Cmr10-30"/>
     <use transform="translate(668.430099609375 0.6875)" xlink:href="#Cmr10-30"/>
     <use transform="translate(718.430099609375 0.6875)" xlink:href="#Cmmi10-3a"/>
     <use transform="translate(763.674240234375 0.6875)" xlink:href="#Cmr10-30"/>
     <use transform="translate(813.674240234375 0.6875)" xlink:href="#Cmr10-30"/>
    </g>
   </g>
   <g id="text_15">
    <!-- $L_{D}(theory) = 10.000$ -->
    <defs>
     <path d="M 8.40625 -14.3125  Q 10.5 -17.921875 15.71875 -17.921875  Q 20.453125 -17.921875 23.921875 -14.59375  Q 27.390625 -11.28125 29.515625 -6.5625  Q 31.640625 -1.859375 32.8125 3.078125  Q 28.375 -1.125 23.1875 -1.125  Q 19.234375 -1.125 16.453125 0.234375  Q 13.671875 1.609375 12.125 4.3125  Q 10.59375 7.03125 10.59375 10.890625  Q 10.59375 14.15625 11.46875 17.59375  Q 12.359375 21.046875 13.9375 25.265625  Q 15.53125 29.5 16.703125 32.625  Q 18.015625 36.28125 18.015625 38.625  Q 18.015625 41.609375 15.828125 41.609375  Q 11.859375 41.609375 9.296875 37.53125  Q 6.734375 33.453125 5.515625 28.421875  Q 5.328125 27.78125 4.6875 27.78125  L 3.515625 27.78125  Q 2.6875 27.78125 2.6875 28.71875  L 2.6875 29  Q 4.296875 34.96875 7.609375 39.578125  Q 10.9375 44.1875 16.015625 44.1875  Q 19.578125 44.1875 22.046875 41.84375  Q 24.515625 39.5 24.515625 35.890625  Q 24.515625 34.03125 23.6875 31.984375  Q 23.25 30.765625 21.6875 26.65625  Q 20.125 22.5625 19.28125 19.875  Q 18.453125 17.1875 17.921875 14.59375  Q 17.390625 12.015625 17.390625 9.421875  Q 17.390625 6.109375 18.796875 3.8125  Q 20.21875 1.515625 23.296875 1.515625  Q 29.5 1.515625 34.421875 9.078125  L 42 39.890625  Q 42.328125 41.21875 43.546875 42.15625  Q 44.78125 43.109375 46.1875 43.109375  Q 47.40625 43.109375 48.3125 42.328125  Q 49.21875 41.546875 49.21875 40.28125  Q 49.21875 39.703125 49.125 39.5  L 39.203125 -0.296875  Q 37.890625 -5.421875 34.375 -10.109375  Q 30.859375 -14.796875 25.90625 -17.65625  Q 20.953125 -20.515625 15.578125 -20.515625  Q 12.984375 -20.515625 10.4375 -19.5  Q 7.90625 -18.5 6.34375 -16.5  Q 4.78125 -14.5 4.78125 -11.8125  Q 4.78125 -9.078125 6.390625 -7.078125  Q 8.015625 -5.078125 10.6875 -5.078125  Q 12.3125 -5.078125 13.40625 -6.078125  Q 14.5 -7.078125 14.5 -8.6875  Q 14.5 -10.984375 12.78125 -12.6875  Q 11.078125 -14.40625 8.796875 -14.40625  Q 8.6875 -14.359375 8.59375 -14.328125  Q 8.5 -14.3125 8.40625 -14.3125  " id="Cmmi10-79"/>
     <path d="M 31 -24.8125  Q 25.4375 -20.40625 21.40625 -14.71875  Q 17.390625 -9.03125 14.8125 -2.578125  Q 12.25 3.859375 10.984375 10.890625  Q 9.71875 17.921875 9.71875 25  Q 9.71875 32.171875 10.984375 39.203125  Q 12.25 46.234375 14.859375 52.734375  Q 17.484375 59.234375 21.53125 64.890625  Q 25.59375 70.5625 31 74.8125  Q 31 75 31.5 75  L 32.421875 75  Q 32.71875 75 32.953125 74.734375  Q 33.203125 74.46875 33.203125 74.125  Q 33.203125 73.6875 33.015625 73.484375  Q 28.125 68.703125 24.875 63.234375  Q 21.625 57.765625 19.640625 51.578125  Q 17.671875 45.40625 16.796875 38.78125  Q 15.921875 32.171875 15.921875 25  Q 15.921875 -6.78125 32.90625 -23.296875  Q 33.203125 -23.578125 33.203125 -24.125  Q 33.203125 -24.359375 32.9375 -24.671875  Q 32.671875 -25 32.421875 -25  L 31.5 -25  Q 31 -25 31 -24.8125  " id="Cmr10-28"/>
     <path d="M 4.6875 0  Q 3.71875 0 3.71875 1.3125  Q 3.765625 1.5625 3.90625 2.171875  Q 4.046875 2.78125 4.3125 3.140625  Q 4.59375 3.515625 4.984375 3.515625  Q 11.078125 3.515625 13.484375 4.203125  Q 14.796875 4.640625 15.375 6.890625  L 29.109375 61.8125  Q 29.296875 62.796875 29.296875 63.1875  Q 29.296875 64.265625 28.078125 64.40625  Q 26.21875 64.796875 20.90625 64.796875  Q 19.921875 64.796875 19.921875 66.109375  Q 20.265625 67.390625 20.453125 67.84375  Q 20.65625 68.3125 21.578125 68.3125  L 51.125 68.3125  Q 52 68.3125 52 67  Q 51.859375 65.96875 51.65625 65.375  Q 51.46875 64.796875 50.6875 64.796875  Q 43.3125 64.796875 40.828125 64.3125  Q 38.375 63.875 37.796875 61.375  L 24.125 6.5  Q 23.6875 5.28125 23.6875 4.296875  Q 23.6875 3.515625 27.09375 3.515625  L 36.375 3.515625  Q 44.234375 3.515625 49.109375 6.640625  Q 54 9.765625 56.34375 13.6875  Q 58.6875 17.625 60.265625 21.84375  Q 61.859375 26.078125 62.59375 26.21875  L 63.484375 26.21875  Q 64.5 26.21875 64.5 24.90625  L 55.609375 0.6875  Q 55.46875 0 54.6875 0  z " id="Cmmi10-4c"/>
     <path d="M 5.328125 1.8125  Q 5.328125 2.390625 5.421875 2.6875  L 19.921875 60.5  Q 20.3125 62.203125 20.40625 63.1875  Q 20.40625 64.796875 13.921875 64.796875  Q 12.890625 64.796875 12.890625 66.109375  Q 12.9375 66.359375 13.109375 66.984375  Q 13.28125 67.625 13.546875 67.96875  Q 13.8125 68.3125 14.3125 68.3125  L 27.78125 69.390625  L 28.078125 69.390625  Q 28.078125 69.28125 28.421875 69.109375  Q 28.765625 68.953125 28.8125 68.890625  Q 29 68.40625 29 68.109375  L 21.1875 36.921875  Q 27.34375 44.1875 35.796875 44.1875  Q 39.3125 44.1875 41.875 42.96875  Q 44.4375 41.75 45.875 39.28125  Q 47.3125 36.8125 47.3125 33.40625  Q 47.3125 29.296875 45.484375 23.484375  Q 43.65625 17.671875 40.921875 10.5  Q 39.5 7.234375 39.5 4.5  Q 39.5 1.515625 41.796875 1.515625  Q 45.703125 1.515625 48.3125 5.6875  Q 50.921875 9.859375 52 14.703125  Q 52.203125 15.28125 52.78125 15.28125  L 54 15.28125  Q 54.390625 15.28125 54.640625 15.015625  Q 54.890625 14.75 54.890625 14.40625  Q 54.890625 14.3125 54.78125 14.109375  Q 53.90625 10.5 52.171875 7  Q 50.4375 3.515625 47.796875 1.1875  Q 45.171875 -1.125 41.609375 -1.125  Q 38.09375 -1.125 35.59375 1.296875  Q 33.109375 3.71875 33.109375 7.171875  Q 33.109375 9.03125 33.890625 11.078125  Q 36.71875 18.609375 38.59375 24.515625  Q 40.484375 30.421875 40.484375 34.90625  Q 40.484375 37.796875 39.359375 39.703125  Q 38.234375 41.609375 35.59375 41.609375  Q 30.21875 41.609375 26.21875 38.3125  Q 22.21875 35.015625 19.28125 29.59375  L 12.5 2.296875  Q 12.109375 0.78125 10.984375 -0.171875  Q 9.859375 -1.125 8.40625 -1.125  Q 7.125 -1.125 6.21875 -0.265625  Q 5.328125 0.59375 5.328125 1.8125  " id="Cmmi10-68"/>
     <path d="M 6.5 -25  Q 5.609375 -25 5.609375 -24.125  Q 5.609375 -23.6875 5.8125 -23.484375  Q 22.90625 -6.78125 22.90625 25  Q 22.90625 56.78125 6 73.296875  Q 5.609375 73.53125 5.609375 74.125  Q 5.609375 74.46875 5.875 74.734375  Q 6.15625 75 6.5 75  L 7.421875 75  Q 7.71875 75 7.90625 74.8125  Q 15.09375 69.140625 19.875 61.03125  Q 24.65625 52.9375 26.875 43.75  Q 29.109375 34.578125 29.109375 25  Q 29.109375 17.921875 27.90625 11.0625  Q 26.703125 4.203125 24.09375 -2.453125  Q 21.484375 -9.125 17.484375 -14.765625  Q 13.484375 -20.40625 7.90625 -24.8125  Q 7.71875 -25 7.421875 -25  z " id="Cmr10-29"/>
    </defs>
    <g transform="translate(607.711764706 177.6)scale(0.2 -0.2)">
     <use xlink:href="#Cmmi10-4c"/>
     <use transform="translate(68.017578125 -17.006249999999994)scale(0.7)" xlink:href="#Cmmi10-44"/>
     <use transform="translate(132.2953125 0.0)" xlink:href="#Cmr10-28"/>
     <use transform="translate(171.113671875 0.0)" xlink:href="#Cmmi10-74"/>
     <use transform="translate(207.19765625 0.0)" xlink:href="#Cmmi10-68"/>
     <use transform="translate(264.81484375 0.0)" xlink:href="#Cmmi10-65"/>
     <use transform="translate(311.29921875 0.0)" xlink:href="#Cmmi10-6f"/>
     <use transform="translate(359.687890625 0.0)" xlink:href="#Cmmi10-72"/>
     <use transform="translate(404.805078125 0.0)" xlink:href="#Cmmi10-79"/>
     <use transform="translate(453.828515625 0.0)" xlink:href="#Cmr10-29"/>
     <use transform="translate(510.20546875 0.0)" xlink:href="#Cmr10-3d"/>
     <use transform="translate(605.449609375 0.0)" xlink:href="#Cmr10-31"/>
     <use transform="translate(655.449609375 0.0)" xlink:href="#Cmr10-30"/>
     <use transform="translate(705.449609375 0.0)" xlink:href="#Cmmi10-3a"/>
     <use transform="translate(750.69375 0.0)" xlink:href="#Cmr10-30"/>
     <use transform="translate(800.69375 0.0)" xlink:href="#Cmr10-30"/>
     <use transform="translate(850.69375 0.0)" xlink:href="#Cmr10-30"/>
    </g>
   </g>
   <g id="text_16">
    <!-- $Coumarin$ -->
    <defs>
     <path d="M 14.59375 21.578125  Q 14.59375 15.578125 16.90625 11.015625  Q 19.234375 6.453125 23.65625 3.875  Q 28.078125 1.3125 34.078125 1.3125  Q 40.375 1.3125 46.203125 4.53125  Q 52.046875 7.765625 56.171875 13.15625  Q 60.296875 18.5625 61.8125 24.609375  Q 62.015625 25.203125 62.59375 25.203125  L 63.8125 25.203125  Q 64.203125 25.203125 64.453125 24.921875  Q 64.703125 24.65625 64.703125 24.3125  Q 64.703125 24.21875 64.59375 24.03125  Q 62.890625 17.09375 57.984375 11.015625  Q 53.078125 4.9375 46.234375 1.359375  Q 39.40625 -2.203125 32.171875 -2.203125  Q 24.359375 -2.203125 18.15625 1.3125  Q 11.96875 4.828125 8.515625 11.078125  Q 5.078125 17.328125 5.078125 25.203125  Q 5.078125 33.59375 8.828125 41.8125  Q 12.59375 50.046875 18.9375 56.46875  Q 25.296875 62.890625 33.421875 66.703125  Q 41.546875 70.515625 49.90625 70.515625  Q 53.21875 70.515625 56.25 69.5  Q 59.28125 68.5 61.859375 66.453125  Q 64.453125 64.40625 66.109375 61.71875  L 74.03125 70.3125  Q 74.03125 70.515625 74.515625 70.515625  L 75.09375 70.515625  Q 75.484375 70.515625 75.734375 70.171875  Q 75.984375 69.828125 75.984375 69.484375  L 69.1875 42.484375  Q 69.1875 41.796875 68.40625 41.796875  L 66.609375 41.796875  Q 65.828125 41.796875 65.828125 42.921875  Q 66.21875 45.125 66.21875 48.1875  Q 66.21875 53.078125 64.546875 57.390625  Q 62.890625 61.71875 59.390625 64.359375  Q 55.90625 67 50.875 67  Q 42.71875 67 35.9375 62.890625  Q 29.15625 58.796875 24.4375 52.125  Q 19.734375 45.453125 17.15625 37.328125  Q 14.59375 29.203125 14.59375 21.578125  " id="Cmmi10-43"/>
    </defs>
    <g transform="translate(433.9 23.8)scale(0.2 -0.2)">
     <use transform="translate(0.0 0.484375)" xlink:href="#Cmmi10-43"/>
     <use transform="translate(71.38671875 0.484375)" xlink:href="#Cmmi10-6f"/>
     <use transform="translate(119.775390625 0.484375)" xlink:href="#Cmmi10-75"/>
     <use transform="translate(176.953125 0.484375)" xlink:href="#Cmmi10-6d"/>
     <use transform="translate(264.74609375 0.484375)" xlink:href="#Cmmi10-61"/>
     <use transform="translate(317.529296875 0.484375)" xlink:href="#Cmmi10-72"/>
     <use transform="translate(362.646484375 0.484375)" xlink:href="#Cmmi10-69"/>
     <use transform="translate(397.0703125 0.484375)" xlink:href="#Cmmi10-6e"/>
    </g>
   </g>
   <g id="legend_1">
    <g id="patch_7">
     <path d="M 713.176875 246  L 836.4 246  L 836.4 207.1725  L 713.176875 207.1725  z " style="fill:#ffffff;stroke:#000000;stroke-linejoin:miter;"/>
    </g>
    <g id="line2d_39">
     <path d="M 721.576875 216.890625  L 738.376875 216.890625  " style="fill:none;stroke:#0000ff;stroke-dasharray:6.000000,6.000000;stroke-dashoffset:0.0;stroke-width:2.0;"/>
    </g>
    <g id="line2d_40">
     <g>
      <use style="fill:#0000ff;stroke:#000000;stroke-width:0.5;" x="721.576875" xlink:href="#m0a6943bf74" y="216.890625"/>
      <use style="fill:#0000ff;stroke:#000000;stroke-width:0.5;" x="738.376875" xlink:href="#m0a6943bf74" y="216.890625"/>
     </g>
    </g>
    <g id="text_17">
     <!-- Experimental -->
     <defs>
      <path d="M 54.890625 33.015625  L 54.890625 0  L 45.90625 0  L 45.90625 32.71875  Q 45.90625 40.484375 42.875 44.328125  Q 39.84375 48.1875 33.796875 48.1875  Q 26.515625 48.1875 22.3125 43.546875  Q 18.109375 38.921875 18.109375 30.90625  L 18.109375 0  L 9.078125 0  L 9.078125 54.6875  L 18.109375 54.6875  L 18.109375 46.1875  Q 21.34375 51.125 25.703125 53.5625  Q 30.078125 56 35.796875 56  Q 45.21875 56 50.046875 50.171875  Q 54.890625 44.34375 54.890625 33.015625  " id="DejaVuSans-6e"/>
      <path d="M 52 44.1875  Q 55.375 50.25 60.0625 53.125  Q 64.75 56 71.09375 56  Q 79.640625 56 84.28125 50.015625  Q 88.921875 44.046875 88.921875 33.015625  L 88.921875 0  L 79.890625 0  L 79.890625 32.71875  Q 79.890625 40.578125 77.09375 44.375  Q 74.3125 48.1875 68.609375 48.1875  Q 61.625 48.1875 57.5625 43.546875  Q 53.515625 38.921875 53.515625 30.90625  L 53.515625 0  L 44.484375 0  L 44.484375 32.71875  Q 44.484375 40.625 41.703125 44.40625  Q 38.921875 48.1875 33.109375 48.1875  Q 26.21875 48.1875 22.15625 43.53125  Q 18.109375 38.875 18.109375 30.90625  L 18.109375 0  L 9.078125 0  L 9.078125 54.6875  L 18.109375 54.6875  L 18.109375 46.1875  Q 21.1875 51.21875 25.484375 53.609375  Q 29.78125 56 35.6875 56  Q 41.65625 56 45.828125 52.96875  Q 50 49.953125 52 44.1875  " id="DejaVuSans-6d"/>
      <path d="M 34.28125 27.484375  Q 23.390625 27.484375 19.1875 25  Q 14.984375 22.515625 14.984375 16.5  Q 14.984375 11.71875 18.140625 8.90625  Q 21.296875 6.109375 26.703125 6.109375  Q 34.1875 6.109375 38.703125 11.40625  Q 43.21875 16.703125 43.21875 25.484375  L 43.21875 27.484375  z M 52.203125 31.203125  L 52.203125 0  L 43.21875 0  L 43.21875 8.296875  Q 40.140625 3.328125 35.546875 0.953125  Q 30.953125 -1.421875 24.3125 -1.421875  Q 15.921875 -1.421875 10.953125 3.296875  Q 6 8.015625 6 15.921875  Q 6 25.140625 12.171875 29.828125  Q 18.359375 34.515625 30.609375 34.515625  L 43.21875 34.515625  L 43.21875 35.40625  Q 43.21875 41.609375 39.140625 45  Q 35.0625 48.390625 27.6875 48.390625  Q 23 48.390625 18.546875 47.265625  Q 14.109375 46.140625 10.015625 43.890625  L 10.015625 52.203125  Q 14.9375 54.109375 19.578125 55.046875  Q 24.21875 56 28.609375 56  Q 40.484375 56 46.34375 49.84375  Q 52.203125 43.703125 52.203125 31.203125  " id="DejaVuSans-61"/>
      <path d="M 18.109375 8.203125  L 18.109375 -20.796875  L 9.078125 -20.796875  L 9.078125 54.6875  L 18.109375 54.6875  L 18.109375 46.390625  Q 20.953125 51.265625 25.265625 53.625  Q 29.59375 56 35.59375 56  Q 45.5625 56 51.78125 48.09375  Q 58.015625 40.1875 58.015625 27.296875  Q 58.015625 14.40625 51.78125 6.484375  Q 45.5625 -1.421875 35.59375 -1.421875  Q 29.59375 -1.421875 25.265625 0.953125  Q 20.953125 3.328125 18.109375 8.203125  M 48.6875 27.296875  Q 48.6875 37.203125 44.609375 42.84375  Q 40.53125 48.484375 33.40625 48.484375  Q 26.265625 48.484375 22.1875 42.84375  Q 18.109375 37.203125 18.109375 27.296875  Q 18.109375 17.390625 22.1875 11.75  Q 26.265625 6.109375 33.40625 6.109375  Q 40.53125 6.109375 44.609375 11.75  Q 48.6875 17.390625 48.6875 27.296875  " id="DejaVuSans-70"/>
      <path d="M 9.8125 72.90625  L 55.90625 72.90625  L 55.90625 64.59375  L 19.671875 64.59375  L 19.671875 43.015625  L 54.390625 43.015625  L 54.390625 34.71875  L 19.671875 34.71875  L 19.671875 8.296875  L 56.78125 8.296875  L 56.78125 0  L 9.8125 0  z " id="DejaVuSans-45"/>
      <path d="M 56.203125 29.59375  L 56.203125 25.203125  L 14.890625 25.203125  Q 15.484375 15.921875 20.484375 11.0625  Q 25.484375 6.203125 34.421875 6.203125  Q 39.59375 6.203125 44.453125 7.46875  Q 49.3125 8.734375 54.109375 11.28125  L 54.109375 2.78125  Q 49.265625 0.734375 44.1875 -0.34375  Q 39.109375 -1.421875 33.890625 -1.421875  Q 20.796875 -1.421875 13.15625 6.1875  Q 5.515625 13.8125 5.515625 26.8125  Q 5.515625 40.234375 12.765625 48.109375  Q 20.015625 56 32.328125 56  Q 43.359375 56 49.78125 48.890625  Q 56.203125 41.796875 56.203125 29.59375  M 47.21875 32.234375  Q 47.125 39.59375 43.09375 43.984375  Q 39.0625 48.390625 32.421875 48.390625  Q 24.90625 48.390625 20.390625 44.140625  Q 15.875 39.890625 15.1875 32.171875  z " id="DejaVuSans-65"/>
      <path d="M 54.890625 54.6875  L 35.109375 28.078125  L 55.90625 0  L 45.3125 0  L 29.390625 21.484375  L 13.484375 0  L 2.875 0  L 24.125 28.609375  L 4.6875 54.6875  L 15.28125 54.6875  L 29.78125 35.203125  L 44.28125 54.6875  z " id="DejaVuSans-78"/>
      <path d="M 9.421875 54.6875  L 18.40625 54.6875  L 18.40625 0  L 9.421875 0  z M 9.421875 75.984375  L 18.40625 75.984375  L 18.40625 64.59375  L 9.421875 64.59375  z " id="DejaVuSans-69"/>
      <path d="M 9.421875 75.984375  L 18.40625 75.984375  L 18.40625 0  L 9.421875 0  z " id="DejaVuSans-6c"/>
      <path d="M 18.3125 70.21875  L 18.3125 54.6875  L 36.8125 54.6875  L 36.8125 47.703125  L 18.3125 47.703125  L 18.3125 18.015625  Q 18.3125 11.328125 20.140625 9.421875  Q 21.96875 7.515625 27.59375 7.515625  L 36.8125 7.515625  L 36.8125 0  L 27.59375 0  Q 17.1875 0 13.234375 3.875  Q 9.28125 7.765625 9.28125 18.015625  L 9.28125 47.703125  L 2.6875 47.703125  L 2.6875 54.6875  L 9.28125 54.6875  L 9.28125 70.21875  z " id="DejaVuSans-74"/>
      <path d="M 41.109375 46.296875  Q 39.59375 47.171875 37.8125 47.578125  Q 36.03125 48 33.890625 48  Q 26.265625 48 22.1875 43.046875  Q 18.109375 38.09375 18.109375 28.8125  L 18.109375 0  L 9.078125 0  L 9.078125 54.6875  L 18.109375 54.6875  L 18.109375 46.1875  Q 20.953125 51.171875 25.484375 53.578125  Q 30.03125 56 36.53125 56  Q 37.453125 56 38.578125 55.875  Q 39.703125 55.765625 41.0625 55.515625  z " id="DejaVuSans-72"/>
     </defs>
     <g transform="translate(751.576875 221.090625)scale(0.12 -0.12)">
      <use xlink:href="#DejaVuSans-45"/>
      <use x="63.18359375" xlink:href="#DejaVuSans-78"/>
      <use x="122.36328125" xlink:href="#DejaVuSans-70"/>
      <use x="185.83984375" xlink:href="#DejaVuSans-65"/>
      <use x="247.36328125" xlink:href="#DejaVuSans-72"/>
      <use x="288.4765625" xlink:href="#DejaVuSans-69"/>
      <use x="316.259765625" xlink:href="#DejaVuSans-6d"/>
      <use x="413.671875" xlink:href="#DejaVuSans-65"/>
      <use x="475.1953125" xlink:href="#DejaVuSans-6e"/>
      <use x="538.57421875" xlink:href="#DejaVuSans-74"/>
      <use x="577.783203125" xlink:href="#DejaVuSans-61"/>
      <use x="639.0625" xlink:href="#DejaVuSans-6c"/>
     </g>
    </g>
    <g id="line2d_41">
     <path d="M 721.576875 234.504375  L 738.376875 234.504375  " style="fill:none;stroke:#008000;stroke-dasharray:6.000000,6.000000;stroke-dashoffset:0.0;stroke-width:2.0;"/>
    </g>
    <g id="line2d_42">
     <g>
      <use style="fill:#008000;stroke:#000000;stroke-width:0.5;" x="721.576875" xlink:href="#me6469829b4" y="234.504375"/>
      <use style="fill:#008000;stroke:#000000;stroke-width:0.5;" x="738.376875" xlink:href="#me6469829b4" y="234.504375"/>
     </g>
    </g>
    <g id="text_18">
     <!-- Simulate -->
     <defs>
      <path d="M 8.5 21.578125  L 8.5 54.6875  L 17.484375 54.6875  L 17.484375 21.921875  Q 17.484375 14.15625 20.5 10.265625  Q 23.53125 6.390625 29.59375 6.390625  Q 36.859375 6.390625 41.078125 11.03125  Q 45.3125 15.671875 45.3125 23.6875  L 45.3125 54.6875  L 54.296875 54.6875  L 54.296875 0  L 45.3125 0  L 45.3125 8.40625  Q 42.046875 3.421875 37.71875 1  Q 33.40625 -1.421875 27.6875 -1.421875  Q 18.265625 -1.421875 13.375 4.4375  Q 8.5 10.296875 8.5 21.578125  M 31.109375 56  z " id="DejaVuSans-75"/>
      <path d="M 53.515625 70.515625  L 53.515625 60.890625  Q 47.90625 63.578125 42.921875 64.890625  Q 37.9375 66.21875 33.296875 66.21875  Q 25.25 66.21875 20.875 63.09375  Q 16.5 59.96875 16.5 54.203125  Q 16.5 49.359375 19.40625 46.890625  Q 22.3125 44.4375 30.421875 42.921875  L 36.375 41.703125  Q 47.40625 39.59375 52.65625 34.296875  Q 57.90625 29 57.90625 20.125  Q 57.90625 9.515625 50.796875 4.046875  Q 43.703125 -1.421875 29.984375 -1.421875  Q 24.8125 -1.421875 18.96875 -0.25  Q 13.140625 0.921875 6.890625 3.21875  L 6.890625 13.375  Q 12.890625 10.015625 18.65625 8.296875  Q 24.421875 6.59375 29.984375 6.59375  Q 38.421875 6.59375 43.015625 9.90625  Q 47.609375 13.234375 47.609375 19.390625  Q 47.609375 24.75 44.3125 27.78125  Q 41.015625 30.8125 33.5 32.328125  L 27.484375 33.5  Q 16.453125 35.6875 11.515625 40.375  Q 6.59375 45.0625 6.59375 53.421875  Q 6.59375 63.09375 13.40625 68.65625  Q 20.21875 74.21875 32.171875 74.21875  Q 37.3125 74.21875 42.625 73.28125  Q 47.953125 72.359375 53.515625 70.515625  " id="DejaVuSans-53"/>
     </defs>
     <g transform="translate(751.576875 238.704375)scale(0.12 -0.12)">
      <use xlink:href="#DejaVuSans-53"/>
      <use x="63.4765625" xlink:href="#DejaVuSans-69"/>
      <use x="91.259765625" xlink:href="#DejaVuSans-6d"/>
      <use x="188.671875" xlink:href="#DejaVuSans-75"/>
      <use x="252.05078125" xlink:href="#DejaVuSans-6c"/>
      <use x="279.833984375" xlink:href="#DejaVuSans-61"/>
      <use x="341.11328125" xlink:href="#DejaVuSans-74"/>
      <use x="380.322265625" xlink:href="#DejaVuSans-65"/>
     </g>
    </g>
   </g>
  </g>
 </g>
 <defs>
  <clipPath id="pe06696868d">
   <rect height="223.2" width="725.4" x="117.0" y="28.8"/>
  </clipPath>
 </defs>
</svg>